<svg class="mx-auto w-16 h-16 mb-4" role="img" viewBox="0 0 24 24" fill="#06B6D4" xmlns="http://www.w3.org/2000/svg">
  <title>Tailwind CSS</title>
  <path d="M12 4.354c-3.2 0-5.2 1.6-6 4.8 1.2-1.6 2.6-2.2 4.2-1.8.9.2 1.5.9 2.2 1.6 1.1 1.1 2.4 2.4 5.1 2.4 3.2 0 5.2-1.6 6-4.8-1.2 1.6-2.6 2.2-4.2 1.8-.9-.2-1.5-.9-2.2-1.6-1.1-1.1-2.4-2.4-5.1-2.4zM6 12c-3.2 0-5.2 1.6-6 4.8 1.2-1.6 2.6-2.2 4.2-1.8.9.2 1.5.9 2.2 1.6 1.1 1.1 2.4 2.4 5.1 2.4 3.2 0 5.2-1.6 6-4.8-1.2 1.6-2.6 2.2-4.2 1.8-.9-.2-1.5-.9-2.2-1.6-1.1-1.1-2.4-2.4-5.1-2.4z"/>
</svg>
